<?xml version="1.0" encoding="UTF-8"?>
<svg width="25px" height="24px" viewBox="0 0 25 24" version="1.1" xmlns="http://www.w3.org/2000/svg" xmlns:xlink="http://www.w3.org/1999/xlink">
    <!-- Generator: Sketch 57.1 (83088) - https://sketch.com -->
    <title>home</title>
    <desc>Created with Sketch.</desc>
    <g id="home" stroke="none" stroke-width="1" fill="none" fill-rule="evenodd">
        <path d="M13.4378849,2.10494177 L13.5266534,2.17347517 L22.7697146,10.3983833 C23.0500432,10.6492111 23.0783874,11.0848587 22.8330233,11.3714294 C22.6121955,11.6293431 22.2449246,11.6786045 21.9693192,11.5030243 L21.8811723,11.4361478 L20.743,11.436 L20.7438382,21.3187542 C20.7438382,21.6607921 20.4972593,21.943956 20.1759082,21.9926135 L20.0774315,22 L5.90740325,22 C5.57281574,22 5.2958198,21.7479305 5.24822209,21.4194237 L5.24099653,21.3187542 L5.24,11.438 L4.11032646,11.4384186 C3.95387114,11.57541 3.74632371,11.6303448 3.54748001,11.5918047 L3.4490603,11.5646921 C3.22239858,11.4830071 3.0555837,11.2839119 3.01145321,11.0424036 C2.97362707,10.8353965 3.03086214,10.6241854 3.16293375,10.4674173 L3.2351123,10.3938417 L12.6381111,2.17347517 C12.8629721,1.96787497 13.1902619,1.9450305 13.4378849,2.10494177 Z M11.0476204,9.93513613 C9.6037392,9.93513613 8.44641286,10.9887964 8.15985797,12.5511202 C7.75334987,14.6856905 8.97731688,17.5128607 12.6292257,19.018414 C12.8741862,19.1242789 13.1506329,19.1242789 13.3955934,19.018414 C16.9466407,17.5182002 18.192904,14.8119872 17.8771067,12.7194934 L17.8471903,12.5465785 C17.5339792,10.9729006 16.4055305,9.95784433 14.9705347,9.95784433 C14.2767821,9.97193289 13.6006106,10.1834691 13.017963,10.5686948 C12.4315405,10.1744259 11.7492344,9.95503208 11.0476204,9.93513613 Z" id="Combined-Shape" stroke="#333333" stroke-width="1.63036278" fill-rule="nonzero"></path>
    </g>
</svg>