<svg xmlns="http://www.w3.org/2000/svg" width="105" height="48" viewBox="0 0 105 48">
    <g fill="none" fill-rule="evenodd">
        <g fill="#000">
            <path d="M49.13 22.49c-.17.302-.522.51-.98.51-.458 0-.81-.208-.98-.51-.16-.292-.17-.47-.17-1.021V9.53c0-.552.01-.729.17-1.02.17-.303.522-.511.98-.511.458 0 .81.208.98.51.16.292.17.47.17 1.021v5.959l5.74-6.813c.372-.437.628-.677 1.054-.677.266 0 .51.094.713.26.266.22.415.51.415.813 0 .312-.138.531-.51.969l-3.227 3.812 4.152 7.136c.267.458.352.645.363.927.01.364-.17.698-.565.927a1.21 1.21 0 0 1-.617.156c-.575 0-.842-.396-1.14-.917l-3.79-6.53-2.588 3.04v2.876c0 .552-.01.729-.17 1.02M63.5 21.011c.924 0 1.708-.352 2.277-.932.752-.777.903-1.658.903-4.579s-.15-3.812-.903-4.59c-.569-.58-1.353-.921-2.277-.921-.934 0-1.719.342-2.277.922-.763.777-.903 1.668-.903 4.59 0 2.92.14 3.8.903 4.578.558.58 1.343.932 2.277.932m-5.5-5.51c0-3.098.054-4.57 1.536-5.999C60.525 8.55 61.813 8 63.5 8c1.676 0 2.965.549 3.953 1.502C68.936 10.932 69 12.402 69 15.5c0 3.097-.064 4.568-1.547 5.998C66.465 22.45 65.176 23 63.5 23c-1.687 0-2.975-.549-3.964-1.502C58.054 20.068 58 18.598 58 15.5M75.5 21.011c.924 0 1.708-.352 2.277-.932.752-.777.903-1.658.903-4.579s-.15-3.812-.903-4.59c-.569-.58-1.353-.921-2.277-.921-.934 0-1.719.342-2.277.922-.763.777-.903 1.668-.903 4.59 0 2.92.14 3.8.903 4.578.558.58 1.343.932 2.277.932m-5.5-5.51c0-3.098.054-4.57 1.536-5.999C72.525 8.55 73.813 8 75.5 8c1.676 0 2.965.549 3.953 1.502C80.936 10.932 81 12.402 81 15.5c0 3.097-.064 4.568-1.547 5.998C78.465 22.45 77.176 23 75.5 23c-1.687 0-2.975-.549-3.964-1.502C70.054 20.068 70 18.598 70 15.5M83.307 22.675C83 22.351 83 21.953 83 21.617V9.54c0-.555.01-.733.158-1.027.159-.303.485-.513.91-.513.425 0 .752.21.91.513.148.294.158.472.158 1.027v11.449h5.559c.454 0 .652.02.87.147.257.157.435.46.435.858 0 .398-.178.702-.435.86-.218.125-.416.146-.87.146h-6.39c-.316 0-.692 0-.998-.325M49.13 39.49c-.17.302-.522.51-.98.51-.458 0-.81-.208-.98-.51-.16-.292-.17-.47-.17-1.021V26.53c0-.552.01-.729.17-1.02.17-.303.522-.511.98-.511.458 0 .81.208.98.51.16.292.17.47.17 1.021v5.959l5.74-6.813c.372-.437.628-.677 1.054-.677.266 0 .51.094.713.26.266.22.415.51.415.813 0 .312-.138.531-.51.969l-3.227 3.812 4.152 7.136c.267.458.352.645.363.927.01.364-.17.698-.565.927a1.21 1.21 0 0 1-.617.156c-.575 0-.842-.396-1.14-.917l-3.79-6.53-2.588 3.04v2.876c0 .552-.01.729-.17 1.02M65 28.531l-2.368 6.49h4.736L65 28.53zm-3.063 8.407l-.738 1.99c-.186.5-.28.687-.488.853A.957.957 0 0 1 60.1 40c-.312 0-.623-.125-.82-.333-.426-.438-.291-.907-.073-1.49l4.527-12.094c.156-.427.27-.604.447-.77.218-.209.467-.313.82-.313.353 0 .602.104.82.312.177.167.291.344.447.771l4.527 12.094c.218.583.353 1.052-.072 1.49a1.151 1.151 0 0 1-.82.333.956.956 0 0 1-.613-.219c-.208-.166-.302-.354-.488-.854l-.738-1.99h-6.126zM74.214 38.469c0 .552-.01.729-.164 1.02-.164.303-.502.511-.943.511-.44 0-.779-.208-.943-.51-.154-.292-.164-.47-.164-1.021V26.437c0-.49.072-.833.318-1.083.225-.229.502-.354.84-.354.523 0 .851.323 1.292.99l6.336 9.51v-8.969c0-.552.01-.729.164-1.02.164-.303.502-.511.943-.511.44 0 .779.208.943.51.154.292.164.47.164 1.021v12.042c0 .49-.072.823-.318 1.073-.225.229-.502.354-.84.354-.523 0-.851-.323-1.292-.99l-6.336-9.51v8.969zM84.586 25.125c.166-.083.365-.125.532-.125.188 0 .355.052.511.156.22.156.324.323.553.781L89 31.573l2.818-5.636c.23-.458.334-.625.553-.78a.897.897 0 0 1 .511-.157c.167 0 .366.042.533.125.375.187.574.51.584.833.01.271-.052.469-.282.927l-3.59 7.126v4.458c0 .552-.01.729-.167 1.02-.167.303-.511.511-.96.511-.449 0-.793-.208-.96-.51-.157-.292-.167-.47-.167-1.021V34.01l-3.59-7.126c-.23-.458-.292-.656-.282-.927.01-.323.209-.646.585-.833M99 28.531l-2.368 6.49h4.736L99 28.53zm-3.063 8.407l-.738 1.99c-.186.5-.28.687-.488.853A.957.957 0 0 1 94.1 40c-.312 0-.623-.125-.82-.333-.426-.438-.291-.907-.073-1.49l4.527-12.094c.156-.427.27-.604.447-.77.218-.209.467-.313.82-.313.353 0 .602.104.82.312.177.167.291.344.447.771l4.527 12.094c.218.583.353 1.052-.072 1.49a1.151 1.151 0 0 1-.82.333.956.956 0 0 1-.613-.219c-.208-.166-.302-.354-.488-.854l-.738-1.99h-6.126z"/>
        </g>
        <path fill="#F45933" d="M4 9.407A1.59 1.59 0 0 0 2.417 11c0 .878.71 1.593 1.583 1.593A1.59 1.59 0 0 0 5.583 11 1.59 1.59 0 0 0 4 9.407M4 15c-2.205 0-4-1.794-4-4s1.795-4 4-4c2.206 0 4 1.794 4 4s-1.794 4-4 4M8.316 20.247c.008.507.084 1.018.224 1.518.202-.208.415-.407.638-.595l13.8-11.625c1.699-1.43 3.797-2.091 5.757-1.812a5.78 5.78 0 0 1 2.548 1.005c.621-1.63.545-3.352-.271-4.593l-.216-.329c-.554-.842-1.381-1.363-2.394-1.507-1.297-.185-2.724.284-3.914 1.287l-13.8 11.625c-1.446 1.218-2.344 3.064-2.372 4.854a5.774 5.774 0 0 0 0 .172zm9.732 3.756l12.778 10.759a8.8 8.8 0 0 1 .607.562c.717-2.06-.128-4.837-2.116-6.511L23.604 24l5.713-4.813c1.988-1.674 2.833-4.451 2.117-6.51a8.92 8.92 0 0 1-.608.561L18.048 24.003zm-8.405-.005c.304.407.654.781 1.045 1.11l13.8 11.626c1.19 1.002 2.617 1.471 3.914 1.287a3.394 3.394 0 0 0 1.71-.74 6.58 6.58 0 0 0-.795-.798l-14.823-12.48 14.823-12.486c.287-.242.554-.509.797-.797a3.395 3.395 0 0 0-1.712-.74c-1.297-.185-2.724.284-3.914 1.286l-13.8 11.626c-.391.329-.742.702-1.045 1.106zm-1.105 2.237a6.066 6.066 0 0 0-.22 1.418l-.002.11c0 .074 0 .156.002.239.053 1.786.94 3.572 2.37 4.777l13.8 11.625c1.19 1.003 2.617 1.47 3.914 1.287 1.013-.144 1.84-.665 2.394-1.507l.216-.329c.825-1.255.866-2.989.264-4.587-.737.522-1.6.865-2.54.999-1.961.279-4.06-.381-5.757-1.812L9.179 26.83a9.021 9.021 0 0 1-.641-.595zM27.842 48c-1.69 0-3.42-.66-4.863-1.875L9.179 34.5c-1.917-1.614-3.104-4.019-3.176-6.432a7.555 7.555 0 0 1-.002-.347l.003-.13c.04-1.234.37-2.462.936-3.583A8.488 8.488 0 0 1 6 20.155c0-2.494 1.182-4.974 3.178-6.655l13.8-11.625C24.678.444 26.776-.216 28.736.063c1.67.238 3.094 1.134 4.008 2.524l.215.328c1.398 2.127 1.378 5.122.007 7.68 1.98 3.027 1.023 7.65-2.139 10.314L27.156 24l3.67 3.091c3.163 2.665 4.12 7.291 2.136 10.318 1.334 2.505 1.424 5.504-.004 7.676l-.215.328c-.914 1.39-2.337 2.286-4.008 2.524a6.347 6.347 0 0 1-.893.063z"/>
    </g>
</svg>
