<?xml version="1.0" encoding="UTF-8"?>
<svg width="24px" height="24px" viewBox="0 0 24 24" version="1.1" xmlns="http://www.w3.org/2000/svg" xmlns:xlink="http://www.w3.org/1999/xlink">
    <!-- Generator: Sketch 57.1 (83088) - https://sketch.com -->
    <title>message</title>
    <desc>Created with Sketch.</desc>
    <g id="message" stroke="none" stroke-width="1" fill="none" fill-rule="evenodd">
        <g transform="translate(0.000000, 2.000000)" fill="#333333" fill-rule="nonzero" id="Shape" stroke="#333333" stroke-width="0.5">
            <path d="M13.8054187,15.2134647 L16.7783251,15.2134647 C18.818786,15.2134647 20.4729064,13.5593443 20.4729064,11.5188834 L20.4729064,6.59277504 C20.4729064,4.55231414 18.818786,2.89819376 16.7783251,2.89819376 L6.92610837,2.89819376 C4.88564748,2.89819376 3.23152709,4.55231414 3.23152709,6.59277504 L3.23152709,11.5188834 C3.23152709,13.5593443 4.88564748,15.2134647 6.92610837,15.2134647 L9.89901478,15.2134647 L11.8522167,17.1666667 L13.8054187,15.2134647 Z M6.92610837,1.66666667 L16.7783251,1.66666667 C19.4989397,1.66666667 21.7044335,3.87216051 21.7044335,6.59277504 L21.7044335,11.5188834 C21.7044335,14.2394979 19.4989397,16.4449918 16.7783251,16.4449918 L14.3152709,16.4449918 L11.8522167,18.908046 L9.38916256,16.4449918 L6.92610837,16.4449918 C4.20549384,16.4449918 2,14.2394979 2,11.5188834 L2,6.59277504 C2,3.87216051 4.20549384,1.66666667 6.92610837,1.66666667 Z"></path>
        </g>
    </g>
</svg>