<?xml version="1.0" encoding="UTF-8"?>
<svg width="25px" height="24px" viewBox="0 0 25 24" version="1.1" xmlns="http://www.w3.org/2000/svg" xmlns:xlink="http://www.w3.org/1999/xlink">
    <!-- Generator: Sketch 57.1 (83088) - https://sketch.com -->
    <title>Notification</title>
    <desc>Created with Sketch.</desc>
    <g id="Notification" stroke="none" stroke-width="1" fill="none" fill-rule="evenodd">
        <path d="M23.0640464,18.6835952 L20.8956318,18.6835952 L20.8956318,10.8242195 C20.8956318,5.40125036 16.913634,1 12.0248447,1 C7.13605539,1 3.15405763,5.40125036 3.15405763,10.8242195 L3.15405763,18.6835952 L0.98564301,18.6835952 C0.433682924,18.6835952 0,19.1158608 0,19.6660171 C0,20.2161734 0.433682924,20.6484391 0.98564301,20.6484391 L8.67365849,20.6484391 C8.83136137,22.3382048 10.2506873,23.7135956 12.0248447,23.7135956 C13.7990021,23.7135956 15.2183281,22.3775017 15.376031,20.6484391 L23.0640464,20.6484391 C23.6160065,20.6484391 24.0496894,20.2161734 24.0496894,19.6660171 C24.0496894,19.1158608 23.6160065,18.6835952 23.0640464,18.6835952 Z M5.12534365,10.8242195 C5.12534365,6.50156294 8.23997556,2.96484391 12.0248447,2.96484391 C15.8097139,2.96484391 18.9243458,6.50156294 18.9243458,10.8242195 L18.9243458,18.6835952 L5.12534365,18.6835952 L5.12534365,10.8242195 Z M12.0248447,21.7487517 C11.3546075,21.7487517 10.8026474,21.2771891 10.6843702,20.6484391 L13.3653192,20.6484391 C13.2470421,21.2771891 12.695082,21.7487517 12.0248447,21.7487517 Z" id="Shape" fill="#333333" fill-rule="nonzero"></path>
    </g>
</svg>